# xmcd
#
# Track frame offsets:
#	150
#	14461
#	30917
#	43505
#	57214
#	77333
#	90247
#	107867
#	119705
#	131429
#	144590
#	165996
#	178054
#	193261
#	204653
#	218637
#	237304
#
# Disc length: 3506 seconds
#
# Revision: 1
# Processed by: cddbd v1.5.1PL2 Copyright (c) Steve Scherf et al.
# Submitted via: audiograbber 1.83.01
#
DISCID=e10db011
DTITLE=Anson Funderburgh and The Rockets - The Best Of Anson Funderburgh and The Ro
DTITLE=ckets - Blast Off
DYEAR=2006
DGENRE=Blues
TTITLE0=Tell Me What Have I Done Wrong?
TTITLE1=A Man Needs His Loving
TTITLE2=Come On
TTITLE3=Rambling Woman
TTITLE4=Tomorrow Will Find Me The Same Way
TTITLE5=I'm Your Professor
TTITLE6=$100 Bill
TTITLE7=Hard-Hearted Woman
TTITLE8=The Blues Seem To Follow Me
TTITLE9=Change In My Pocket
TTITLE10=Down At JJ's
TTITLE11=Oh-Oh
TTITLE12=Can We Get Together
TTITLE13=I Done Quit Getting Sloppy Drunk
TTITLE14=My Heart Cries Out For You
TTITLE15=Mudslide
TTITLE16=Changing Neighborhoods
EXTD=
EXTT0=
EXTT1=
EXTT2=
EXTT3=
EXTT4=
EXTT5=
EXTT6=
EXTT7=
EXTT8=
EXTT9=
EXTT10=
EXTT11=
EXTT12=
EXTT13=
EXTT14=
EXTT15=
EXTT16=
PLAYORDER=
